# xmcd
#
# Track frame offsets: 
#        150
#        16162
#        30960
#        45812
#        56100
#        67350
#        77657
#        99070
#        110410
#        123220
#
# Disc length: 1799 seconds
#
# Revision: 1
# Processed by: cddbd v1.5PL3 Copyright (c) Steve Scherf et al.
# Submitted via: ExactAudioCopy v0.95a3
#
DISCID=6e07050a
DTITLE=Various Artist - The Very Best of Country Gospel [Disc 2]
DYEAR=2004
DGENRE=Gospel
TTITLE0=Cristy Lane - One Day At A Time
TTITLE1=Merle Haggard - Precious Memories
TTITLE2=Larry Gatlin and The Gatlin Brothers - The Prodigal Son
TTITLE3=Glen Campbell - Daddy Sang Bass
TTITLE4=George Jones - Homecoming In Heaven
TTITLE5=Ferlin Husky - Wings Of A Dove
TTITLE6=Charlie Daniels - Washed In The Blood
TTITLE7=The Oak Ridge Boys - I Will Live For Jesus
TTITLE8=Roy Acuff - The Great Speckled Bird
TTITLE9=Tennessee Ernie Ford - He'll Understand And Say Well Done
EXTD=
EXTT0=
EXTT1=
EXTT2=
EXTT3=
EXTT4=
EXTT5=
EXTT6=
EXTT7=
EXTT8=
EXTT9=
PLAYORDER=
